<svg width="200" height="50" viewBox="0 0 200 50" fill="none" xmlns="http://www.w3.org/2000/svg">
  <path d="M26.4 36.8C23.2 36.8 20.3 35.8 17.7 33.8C15.1 31.8 13.9 29.4 13.9 26.6C13.9 24.8 14.5 23.2 15.6 21.8C16.8 20.4 18.5 19.3 20.7 18.5L25.3 16.9C26.5 16.5 27.5 16 28.1 15.4C28.8 14.8 29.1 14.1 29.1 13.3C29.1 12.5 28.8 11.9 28.3 11.4C27.7 10.9 27.0 10.6 26.0 10.6C25.0 10.6 24.2 10.9 23.6 11.4C23.0 11.9 22.7 12.6 22.7 13.5H14.8C14.8 11.3 15.5 9.4 17.1 7.8C18.6 6.3 20.6 5.3 23.1 4.7C24.0 4.5 25.0 4.4 26.1 4.4C29.4 4.4 32.1 5.3 34.3 7.0C36.6 8.7 37.7 11.0 37.7 13.7C37.7 15.4 37.3 16.9 36.5 18.1C35.7 19.3 34.3 20.3 32.3 21.0L27.9 22.5C26.7 22.9 25.7 23.4 25.1 24.1C24.4 24.7 24.1 25.5 24.1 26.4C24.1 27.4 24.5 28.2 25.2 28.8C25.9 29.4 26.8 29.7 28.0 29.7C29.2 29.7 30.1 29.4 30.8 28.8C31.5 28.2 31.9 27.4 31.9 26.5H39.8C39.8 28.8 39.0 30.8 37.4 32.5C35.7 34.2 33.6 35.3 31.0 36.0C30.0 36.3 28.5 36.4 26.4 36.8Z" fill="#1E3A8A"/>
  <path d="M55.4 36.8C52.2 36.8 49.3 35.8 46.7 33.8C44.1 31.8 42.9 29.4 42.9 26.6C42.9 24.8 43.5 23.2 44.6 21.8C45.8 20.4 47.5 19.3 49.7 18.5L54.3 16.9C55.5 16.5 56.5 16 57.1 15.4C57.8 14.8 58.1 14.1 58.1 13.3C58.1 12.5 57.8 11.9 57.3 11.4C56.7 10.9 56.0 10.6 55.0 10.6C54.0 10.6 53.2 10.9 52.6 11.4C52.0 11.9 51.7 12.6 51.7 13.5H43.8C43.8 11.3 44.5 9.4 46.1 7.8C47.6 6.3 49.6 5.3 52.1 4.7C53.0 4.5 54.0 4.4 55.1 4.4C58.4 4.4 61.1 5.3 63.3 7.0C65.6 8.7 66.7 11.0 66.7 13.7C66.7 15.4 66.3 16.9 65.5 18.1C64.7 19.3 63.3 20.3 61.3 21.0L56.9 22.5C55.7 22.9 54.7 23.4 54.1 24.1C53.4 24.7 53.1 25.5 53.1 26.4C53.1 27.4 53.5 28.2 54.2 28.8C54.9 29.4 55.8 29.7 57.0 29.7C58.2 29.7 59.1 29.4 59.8 28.8C60.5 28.2 60.9 27.4 60.9 26.5H68.8C68.8 28.8 68.0 30.8 66.4 32.5C64.7 34.2 62.6 35.3 60.0 36.0C59.0 36.3 57.5 36.4 55.4 36.8Z" fill="#1E3A8A"/>
  <path d="M74.9 36.4V4.8H82.8V29.3H95.4V36.4H74.9Z" fill="#1E3A8A"/>
  <text x="105" y="36" font-family="Arial, sans-serif" font-weight="bold" font-size="28" fill="#1E3A8A">Wireless</text>
</svg>
